<svg xmlns="http://www.w3.org/2000/svg" width="60" height="60" viewBox="0 0 1600 1111" preserveAspectRatio="xMidYMid meet">

<g transform="translate(0.000000,1111.000000) scale(0.100000,-0.100000)"
fill="#000000" stroke="none">
<path d="M5310 8923 c-156 -16 -389 -65 -575 -122 -218 -67 -463 -194 -672
-347 -209 -155 -458 -391 -619 -589 -554 -683 -769 -1581 -583 -2435 86 -398
264 -785 510 -1110 489 -648 1197 -1048 2014 -1140 136 -15 482 -12 625 5 864
105 1608 563 2094 1290 72 107 230 415 272 530 77 208 75 203 64 245 -6 22
-13 40 -15 40 -2 0 -3 -23 -1 -50 1 -28 -1 -53 -6 -56 -4 -3 -8 3 -9 13 0 10
-8 -4 -17 -32 -9 -27 -20 -53 -24 -56 -5 -3 -6 -12 -3 -20 3 -8 1 -27 -4 -44
l-9 -30 -2 35 -1 35 -13 -41 c-7 -22 -32 -66 -54 -97 -23 -31 -42 -61 -42 -67
0 -5 -7 -10 -15 -10 -9 0 -19 -10 -24 -22 -11 -27 -37 -50 -83 -74 -25 -13
-49 -15 -111 -11 -44 3 -83 9 -86 14 -3 5 -13 12 -21 15 -8 3 -24 29 -35 57
-11 28 -23 51 -27 51 -4 0 -8 11 -8 25 0 50 -33 24 -89 -68 -23 -37 -41 -71
-41 -76 0 -5 -3 -11 -7 -13 -5 -1 -21 -23 -38 -48 -253 -382 -575 -667 -985
-872 -293 -146 -703 -230 -1045 -215 -508 23 -952 199 -1351 533 -462 388
-770 982 -835 1612 -17 168 -7 526 20 674 79 447 246 828 507 1163 98 126 311
328 464 439 144 106 370 216 575 280 160 51 247 66 373 66 185 0 291 -22 547
-115 17 -6 17 -5 5 5 -12 9 -9 11 15 6 17 -3 25 -3 20 -1 -6 3 -9 25 -7 50 3
28 0 45 -7 45 -6 0 -11 18 -11 40 0 53 39 170 57 170 7 0 16 7 19 15 4 8 17
15 30 15 14 0 27 7 31 16 3 8 23 22 44 31 22 8 39 19 39 24 0 5 20 9 45 9 26
0 59 7 74 14 15 8 39 13 52 10 24 -5 24 -5 4 12 l-20 17 20 -8 c11 -4 31 -10
45 -13 14 -3 28 -9 31 -15 4 -5 13 -7 20 -5 14 5 -114 69 -186 93 -127 42
-253 70 -452 100 -94 14 -381 19 -483 8z m3097 -3775 c-3 -8 -6 -5 -6 6 -1 11
2 17 5 13 3 -3 4 -12 1 -19z m-587 -232 c0 -3 -4 -8 -10 -11 -5 -3 -10 -1 -10
4 0 6 5 11 10 11 6 0 10 -2 10 -4z"/>
<path d="M5966 8281 c-15 -6 -16 -10 -7 -15 8 -5 20 -2 29 8 17 17 9 19 -22 7z"/>
<path d="M7946 8179 c-32 -25 -27 -38 6 -15 28 20 45 21 29 2 -9 -11 -6 -12
16 -8 16 3 22 7 16 9 -7 3 -13 9 -13 14 0 6 5 7 12 3 7 -4 8 -3 4 4 -11 18
-41 14 -70 -9z"/>
<path d="M7895 8120 c-10 -11 -16 -22 -13 -25 3 -3 13 6 22 20 20 30 16 32 -9
5z"/>
<path d="M8573 6060 c0 -25 2 -35 4 -22 2 12 2 32 0 45 -2 12 -4 2 -4 -23z"/>
<path d="M8561 5924 c0 -11 3 -14 6 -6 3 7 2 16 -1 19 -3 4 -6 -2 -5 -13z"/>
<path d="M8561 5814 c0 -11 3 -14 6 -6 3 7 2 16 -1 19 -3 4 -6 -2 -5 -13z"/>
<path d="M8538 5738 c-6 -45 -4 -129 3 -113 4 11 5 34 2 51 -2 18 0 41 6 53 8
14 8 21 1 21 -5 0 -11 -6 -12 -12z"/>
<path d="M9920 5700 c-204 -55 -382 -189 -485 -366 -21 -35 -41 -64 -45 -64
-4 0 -10 66 -14 148 -3 81 -9 168 -13 195 l-6 47 -219 0 c-206 0 -220 -1 -212
-17 5 -10 10 -537 12 -1170 l3 -1153 230 0 229 0 0 618 c0 339 5 660 10 712
34 320 186 534 440 620 82 28 262 38 351 21 33 -7 63 -10 66 -8 2 3 9 96 14
207 8 149 8 205 -1 214 -7 7 -62 12 -148 13 -111 2 -151 -1 -212 -17z"/>
<path d="M11175 5710 c-240 -37 -494 -172 -656 -348 -253 -276 -366 -683 -299
-1079 24 -139 47 -215 105 -339 152 -329 448 -553 825 -626 36 -6 137 -12 225
-12 142 0 173 3 270 28 224 56 420 181 530 337 11 16 23 29 28 29 10 0 8 -392
-3 -479 -16 -120 -39 -200 -87 -300 -84 -175 -242 -299 -448 -352 -118 -30
-322 -37 -455 -14 -165 27 -313 85 -458 179 -68 44 -180 138 -195 162 -14 24
-31 15 -77 -43 -25 -32 -89 -110 -144 -176 -54 -65 -97 -119 -95 -121 2 -1 29
-23 59 -48 199 -166 476 -286 805 -349 107 -21 494 -18 612 4 412 78 725 327
859 685 18 48 45 146 61 217 l28 130 3 1233 3 1232 -221 0 -220 0 0 -185 c0
-102 -4 -185 -8 -185 -5 0 -29 28 -54 63 -120 163 -290 273 -514 333 -83 22
-124 27 -259 30 -88 1 -187 -1 -220 -6z m480 -395 c136 -37 299 -139 392 -245
129 -148 195 -337 195 -555 -1 -234 -66 -415 -208 -575 -137 -155 -316 -236
-545 -247 -152 -7 -251 12 -379 74 -82 39 -108 59 -191 142 -86 86 -102 108
-147 201 -75 156 -87 213 -87 410 0 198 13 257 87 409 43 87 64 116 132 185
114 114 234 180 385 212 85 17 284 12 366 -11z"/>
<path d="M8512 5548 c-6 -24 -14 -60 -17 -80 -13 -93 -16 -107 -33 -126 -12
-14 -17 -33 -16 -58 4 -45 14 -58 14 -18 0 17 5 35 10 40 13 13 71 284 61 284
-4 0 -12 -19 -19 -42z"/>
<path d="M4225 5429 c-4 -6 -5 -12 -2 -15 2 -3 7 2 10 11 7 17 1 20 -8 4z"/>
<path d="M4190 5380 c-6 -11 -8 -25 -5 -30 11 -18 20 -10 21 20 1 35 -2 37
-16 10z"/>
<path d="M7046 5304 c-4 -15 -5 -29 -1 -32 3 -3 5 2 5 12 0 9 5 14 10 11 6 -3
10 1 10 9 0 27 -18 27 -24 0z"/>
<path d="M4133 5243 c-34 -149 -15 -526 29 -569 15 -14 42 -17 158 -14 72 2
80 3 52 11 -20 6 -37 20 -45 36 -13 29 -64 83 -78 83 -5 0 -9 5 -9 12 0 6 -6
19 -14 27 -18 20 -66 161 -67 198 -2 23 -3 21 -9 -12 -6 -36 -7 -32 -9 28 0
37 3 67 7 67 12 0 13 68 2 75 -6 3 -10 14 -9 23 0 14 2 13 9 -3 5 -14 7 -5 5
27 -3 33 0 48 11 52 18 7 18 36 0 36 -10 0 -21 -25 -33 -77z"/>
<path d="M7070 5255 c-4 -13 -7 -45 -16 -205 -4 -89 -12 -143 -21 -157 -8 -12
-14 -26 -14 -30 3 -29 -15 -75 -39 -101 -18 -20 -26 -39 -23 -50 3 -14 -4 -22
-29 -32 -18 -8 -41 -21 -50 -31 -16 -16 -13 -18 68 -24 80 -7 88 -6 107 14 21
20 22 32 23 204 1 113 -1 161 -5 127 -7 -51 -8 -48 -9 38 -1 51 3 102 8 113 6
11 9 47 7 82 -2 34 -5 58 -7 52z"/>
<path d="M7806 4974 c-9 -24 -7 -28 9 -14 17 14 20 30 6 30 -5 0 -12 -7 -15
-16z"/>
</g>
</svg>
